<?xml version="1.0" standalone="no"?>
<!DOCTYPE svg PUBLIC "-//W3C//DTD SVG 1.1//EN" "http://www.w3.org/Graphics/SVG/1.1/DTD/svg11.dtd">
<svg width="100%" height="100%" viewBox="0 0 100 100" version="1.1" xmlns="http://www.w3.org/2000/svg" xmlns:xlink="http://www.w3.org/1999/xlink" xml:space="preserve" style="fill-rule:evenodd;clip-rule:evenodd;stroke-linejoin:round;stroke-miterlimit:1.41421;">
    <g>
        <g id="backdrop">
            <path d="M19.0744,9.69641C25.5233,9.69641 30.7512,15.2796 30.7512,22.1668C30.7512,29.054 25.5233,34.6372 19.0744,34.6372C12.6254,34.6372 7.39748,29.054 7.39748,22.1668C7.39748,15.2796 12.6254,9.69641 19.0744,9.69641Z" style="fill:rgb(218,255,207);stroke-width:1px;stroke:black;"/>
            <path d="M78.7551,25.4031C83.2706,25.4031 86.9312,29.2843 86.9312,34.0721C86.9312,38.8598 83.2706,42.741 78.7551,42.741C74.2396,42.741 70.579,38.8598 70.579,34.0721C70.579,29.2843 74.2396,25.4031 78.7551,25.4031Z" style="fill:rgb(255,207,211);stroke-width:1px;stroke:black;"/>
            <path d="M56.7482,6.99813C61.6696,6.99813 65.6591,10.8389 65.6591,15.5768C65.6591,20.3147 61.6696,24.1555 56.7482,24.1555C51.8269,24.1555 47.8373,20.3147 47.8373,15.5768C47.8373,10.8389 51.8269,6.99813 56.7482,6.99813Z" style="fill:rgb(255,207,238);stroke-width:1px;stroke:black;"/>
            <path d="M92.6825,-11.0539C99.2536,-11.0539 104.581,-5.79483 104.581,0.692525C104.581,7.17988 99.2536,12.4389 92.6825,12.4389C86.1114,12.4389 80.7845,7.17988 80.7845,0.692525C80.7845,-5.79483 86.1114,-11.0539 92.6825,-11.0539Z" style="fill:rgb(208,255,207);stroke-width:1px;stroke:black;"/>
            <path d="M92.7457,60.8535C98.2504,60.8535 102.713,65.9105 102.713,72.1485C102.713,78.3866 98.2504,83.4436 92.7457,83.4436C87.241,83.4436 82.7786,78.3866 82.7786,72.1485C82.7786,65.9105 87.241,60.8535 92.7457,60.8535Z" style="fill:rgb(255,219,207);stroke-width:1px;stroke:black;"/>
            <path d="M85.4019,80.5169C92.9503,80.5169 99.0694,86.7443 99.0694,94.4263C99.0694,102.108 92.9503,108.336 85.4019,108.336C77.8536,108.336 71.7345,102.108 71.7345,94.4263C71.7345,86.7443 77.8536,80.5169 85.4019,80.5169Z" style="fill:rgb(217,207,255);stroke-width:1px;stroke:black;"/>
            <path d="M73.809,51.8749C77.3139,51.8749 80.1552,56.4182 80.1552,62.0226C80.1552,67.627 77.3139,72.1702 73.809,72.1702C70.3041,72.1702 67.4628,67.627 67.4628,62.0226C67.4628,56.4182 70.3041,51.8749 73.809,51.8749Z" style="fill:rgb(255,207,233);stroke-width:1px;stroke:black;"/>
            <path d="M58.8642,69.2941C64.5075,69.2941 69.0823,79.1283 69.0823,91.2595C69.0823,103.391 64.5075,113.225 58.8642,113.225C53.221,113.225 48.6462,103.391 48.6462,91.2595C48.6462,79.1283 53.221,69.2941 58.8642,69.2941Z" style="fill:rgb(255,252,207);stroke-width:1px;stroke:black;"/>
            <path d="M16.9421,38.407C21.3858,38.407 24.9882,43.3015 24.9882,49.3391C24.9882,55.3768 21.3858,60.2713 16.9421,60.2713C12.4984,60.2713 8.89602,55.3768 8.89602,49.3391C8.89602,43.3015 12.4984,38.407 16.9421,38.407Z" style="fill:rgb(207,255,246);stroke-width:1px;stroke:black;"/>
            <path d="M0.437389,87.8498C4.92549,87.8498 8.56381,92.8837 8.56381,99.0934C8.56381,105.303 4.92549,110.337 0.437389,110.337C-4.05071,110.337 -7.68904,105.303 -7.68904,99.0934C-7.68904,92.8837 -4.05071,87.8498 0.437389,87.8498Z" style="fill:rgb(220,255,207);stroke-width:1px;stroke:black;"/>
            <path d="M26.8605,-3.05924C30.9432,-3.05924 34.253,0.286463 34.253,4.4136C34.253,8.54074 30.9432,11.8864 26.8605,11.8864C22.7777,11.8864 19.468,8.54074 19.468,4.4136C19.468,0.286463 22.7777,-3.05924 26.8605,-3.05924Z" style="fill:rgb(255,238,207);stroke-width:1px;stroke:black;"/>
        </g>
        <g id="nicholas">
            <path d="M103.162,70.8414C103.162,70.8414 96.6351,82.3587 94.7444,80.9596C90.375,77.7263 102.74,60.6287 102.74,60.6287C102.74,60.6287 98.0137,67.3537 95.9478,71.8118C95.9478,71.8118 92.4464,67.991 96.748,60.5603C99.7536,55.3684 106.394,48.974 106.394,48.974L117.439,61.3735L112.506,65.2105C112.506,65.2105 102.279,86.1392 99.4512,83.8777C96.6236,81.6162 103.162,70.8414 103.162,70.8414Z" style="fill:rgb(210,207,255);stroke-width:1px;stroke:black;"/>
        </g>
        <g id="william">
            <path d="M52.8253,-5.46985L42.171,2.83954C42.171,2.83954 39.6944,6.57098 41.3457,8.79741C43.8745,6.90985 49.9787,0.996978 49.9787,0.996978L38.8247,11.3567L42.9897,14.7328L47.8264,9.20312L41.8248,15.7871L47.1553,20.2552L56.1351,7.84635C56.1351,7.84635 52.6624,12.6619 51.3282,14.4528C54.3442,17.0254 58.9969,10.493 58.9969,10.493L68.8113,-1.31813L52.8253,-5.46985Z" style="fill:rgb(207,255,211);stroke-width:1px;stroke:black;"/>
        </g>
        <g id="bradley">
            <path id="head" d="M57.1229,30.3623C59.5699,46.8408 81.3756,38.4234 78.4619,24.8975C75.3791,10.5866 54.2614,11.0924 57.1229,30.3623Z" style="fill:rgb(255,252,207);stroke-width:1px;stroke:black;"/>
            <path d="M67.7481,32.5408C72.8606,30.7395 70.5649,26.4653 66.6688,26.6908C62.7726,26.9164 63.8133,33.9272 67.7481,32.5408ZM64.9714,19.195C61.1366,20.3502 62.0086,26.0949 66.3317,25.0917C70.6547,24.0885 68.7092,18.0689 64.9714,19.195Z" style="fill:white;stroke-width:1px;stroke:black;"/>
        </g>
        <g id="neven">
            <path d="M24.0746,22.5135C24.9507,18.8198 26.104,15.3154 27.9324,11.8258C27.9324,11.8258 25.2166,15.964 23.9029,22.5883C21.7304,22.2929 20.1351,19.66 21.3413,16.0461C22.5084,12.5494 23.9688,9.60185 25.4944,7.32892C28.1457,3.37878 30.6269,6.87121 32.3714,3.34938C31.5594,4.98867 30.5286,4.97085 30.1174,5.09063C30.1174,5.09063 24.0349,2.2771 24.4965,-3.944C24.958,-10.1651 48.4658,-9.43859 48.1417,-3.0231C47.8176,3.3924 41.7141,6.25926 39.1455,6.23398C38.9185,5.20989 38.9574,4.04585 38.9574,4.04585C38.9574,4.04585 38.7735,8.46612 40.8442,8.46155C44.5026,8.45346 38.5941,36.0234 38.5941,36.0234C38.5941,36.0234 20.7096,35.9657 24.0746,22.5135Z" style="fill:rgb(255,207,246);stroke-width:1px;stroke:black;"/>
        </g>
        <g id="herbert">
            <path id="body" d="M79.3974,14.1497L89.7717,1.42386L96.5913,1.1214L100.116,-2.17455L103.959,5.32408L102.625,7.83841L102.979,14.0021L93.8659,28.6599L90.511,24.6048L99.5875,11.4805L99.5875,8.9L98.651,12.7704L92.288,21.7959L87.7458,11.9888L92.1775,6.39957L95.0605,5.57426L91.1232,7.47638L83.8906,16.3761L79.3974,14.1497Z" style="fill:rgb(207,244,255);stroke-width:1px;stroke:black;"/>
        </g>
        <g id="wendy">
            <path id="head and body" d="M87.3725,-3.78799C81.8981,-23.5151 52.5847,-16.2343 53.3134,5.01866C53.7974,19.134 71.9329,19.4539 74.7236,16.1685L73.7632,11.8805L74.827,16.5361C74.827,16.5361 71.4672,17.7164 71.2158,23.1359C70.664,35.0305 71.8875,37.9142 73.826,39.167C78.2354,42.0165 77.8375,24.2371 78.153,22.2329L77.8582,29.4504C77.8582,29.4504 80.953,36.0716 82.1149,47.1467C83.2768,58.2218 99.761,49.3889 93.3018,32.537C89.5077,22.6382 86.3784,17.7797 86.3784,17.7797L94.2896,33.0768C94.2896,33.0768 99.2759,31.0993 93.6104,18.851C87.5788,5.81145 87.8193,11.1709 83.9843,10.3743C79.764,9.4976 79.7214,6.53116 79.7214,6.53116C79.9079,7.83052 80.7465,9.16709 82.1864,9.78793C82.1864,9.78793 89.5422,4.03075 87.3725,-3.78799Z" style="fill:rgb(207,230,255);stroke-width:1px;stroke:black;"/>
            <path id="eyes" d="M67.3771,2.301C68.9122,-3.33234 60.0769,-5.98189 59.2344,-0.146647C58.3918,5.68859 65.401,9.55249 67.3771,2.301ZM75.0301,0.143966C79.2294,0.0586767 80.3973,-7.24016 74.9548,-7.05486C69.5124,-6.86957 69.5911,0.254431 75.0301,0.143966Z" style="fill:white;stroke-width:1px;stroke:black;"/>
        </g>
        <g id="pauly">
            <path id="head1" d="M94.9292,63.626C91.464,72.9028 72.7172,70.107 75.9532,56.7346C79.1891,43.3622 100.37,49.0596 94.9292,63.626Z" style="fill:rgb(207,255,221);stroke-width:1px;stroke:black;"/>
            <path id="eyes1" d="M93.8789,62.5543C91.8289,66.7115 86.2344,65.4816 88.2048,60.0897C90.1752,54.6977 96.3879,57.4663 93.8789,62.5543ZM80.2695,56.8577C77.6685,60.8324 84.1002,64.6834 85.5862,59.9614C87.0722,55.2395 83.5759,51.8049 80.2695,56.8577Z" style="fill:white;stroke-width:1px;stroke:black;"/>
        </g>
        <g id="frank">
            <path d="M92.3953,41.0518C92.3953,41.0518 87.0921,34.9548 90.2784,27.624C90.4761,26.5729 93.997,20.1634 94.3918,20.1075C95.2977,18.6649 96.3909,18.0214 97.6715,18.1769C96.1548,22.9203 95.1965,27.3854 94.4921,31.7239C97.5517,15.9865 99.5727,12.3169 103.113,7.78657C111.539,26.0316 111.734,47.8943 99.6579,44.3402" style="fill:rgb(255,225,207);stroke-width:1px;stroke:black;"/>
            <path id="head2" d="M98.0726,41.2447C107.976,48.1882 96.3948,66.1613 86.3877,60.0176C75.2343,53.1702 85.1135,32.1585 98.0726,41.2447Z" style="fill:rgb(255,225,207);stroke-width:1px;stroke:black;"/>
            <path id="eyes2" d="M91.9711,51.4358C90.3693,56.5946 94.5095,58.9008 97.5092,54.2051C100.509,49.5093 93.6411,46.0577 91.9711,51.4358ZM89.9613,50.3068C93.4298,46.7657 88.9996,42.0179 85.6419,46.1065C82.2843,50.1951 86.4133,53.9291 89.9613,50.3068Z" style="fill:white;stroke-width:1px;stroke:black;"/>
        </g>
        <g id="geoffrey">
            <path id="body1" d="M28.6235,72.7585C28.6235,72.7585 29.2093,78.6801 33.6179,79.3427C38.0264,80.0054 37.9172,85.5532 37.9172,90.4764C37.9172,95.3997 33.0575,102.557 29.8847,102.557C26.7119,102.557 15.2627,100.96 15.874,87.7473C16.4852,74.5344 24.0792,84.5681 24.3565,72.8931" style="fill:rgb(248,255,207);stroke-width:1px;stroke:black;"/>
            <path id="head3" d="M26.3171,52.3532C33.9058,52.348 40.155,58.8966 39.5022,66.41C38.8494,73.9235 30.9453,77.0891 26.1456,77.1677C20.5377,77.2596 13.1363,72.7572 13.8275,64.4646C14.3288,58.4496 19.2459,52.358 26.3171,52.3532Z" style="fill:rgb(248,255,207);stroke-width:1px;stroke:black;"/>
            <path id="eyes3" d="M27.1896,66.4804C26.0065,72.8655 32.7576,72.7493 33.6856,67.4016C34.6135,62.0539 28.5717,59.0213 27.1896,66.4804ZM24.5981,65.4568C26.5013,71.049 19.2072,72.7418 17.7714,67.1616C16.4998,62.2193 22.6261,59.6623 24.5981,65.4568Z" style="fill:white;stroke-width:1px;stroke:black;"/>
        </g>
        <g id="nova">
            <path id="doodlebelly" d="M7.73983,17.1663C7.73983,17.1663 8.08682,20.8726 12.7793,21.0036C17.4718,21.1346 17.5229,24.6919 17.4718,28.347C17.443,30.403 17.0113,34.8777 16.8789,38.8609C16.703,44.1545 14.4173,44.8738 12.5128,44.7918C12.2074,41.6046 11.4569,31.0323 11.4569,31.0323L9.96913,29.0768L11.5468,32.1589L12.8591,49.6876L-6.42356,49.664L-6.01311,18.3848L7.73983,17.1663Z" style="fill:rgb(207,212,255);stroke-width:1px;stroke:black;"/>
            <path id="head4" d="M2.6144,23.327C11.5546,23.498 25.153,14.135 26.0993,1.5694C27.0455,-10.9962 25.9964,-10.3637 25.9964,-10.3637L-8.41795,-10.6948L-8.67998,22.3122C-8.67998,22.3122 -6.32581,23.1561 2.6144,23.327Z" style="fill:rgb(207,212,255);stroke-width:1px;stroke:black;"/>
            <path id="eyes4" d="M4.54738,12.2123C8.60082,5.32583 0.715202,-1.72848 -4.42712,5.96299C-9.56944,13.6545 -0.0461371,20.0163 4.54738,12.2123ZM14.2947,12.1657C21.2758,5.62576 12.1794,0.520142 8.28487,4.56073C4.03101,8.97416 8.35507,17.7299 14.2947,12.1657Z" style="fill:white;stroke-width:1px;stroke:black;"/>
        </g>
        <g id="jessica">
            <path id="body2" d="M77.9856,95.4296C77.9856,95.4296 84.7021,89.8395 86.993,96.0512C89.2839,102.263 89.7029,106.76 89.7029,106.76L73.8033,108.848L77.9856,95.4296Z" style="fill:rgb(255,207,241);stroke-width:1px;stroke:black;"/>
            <path id="head5" d="M61.3381,92.9042C60.4988,103.475 79.0638,110.964 82.108,95.6728C85.1522,80.3814 62.4904,78.3925 61.3381,92.9042Z" style="fill:rgb(255,207,241);stroke-width:1px;stroke:black;"/>
            <path id="eyes5" d="M67.4394,95.1869C66.8658,99.6514 73.5002,100.92 73.8738,95.6716C74.2475,90.4229 68.0611,90.3489 67.4394,95.1869ZM77.8928,88.105C76.7335,91.3813 72.7152,91.8678 72.617,86.9005C72.5189,81.9332 79.2342,84.314 77.8928,88.105Z" style="fill:white;stroke-width:1px;stroke:black;"/>
        </g>
        <g id="regina">
            <g id="body3">
                <path d="M2.17788,64.9494C11.6615,63.522 17.7241,62.6394 20.0633,68.1787C22.4024,73.718 25.2164,81.8458 22.8326,83.2948C20.4487,84.7438 17.5426,78.9782 16.0936,72.8726C15.2488,79.2648 20.6594,83.8164 20.78,86.6386C20.9006,89.4607 1.67117,92.6311 1.67117,92.6311C0.857786,86.8166 0.634262,80.9813 1.70843,75.1C1.32364,77.2068 0.591083,80.399 1.08116,87.3762C-4.72035,93.7404 -19.2094,68.1684 2.17788,64.9494Z" style="fill:rgb(255,230,207);stroke-width:1px;stroke:black;"/>
            </g>
            <path id="head6" d="M17.7454,54.095C17.8853,64.622 8.44911,71.6422 2.01153,71.1219C-4.42604,70.6017 -15.294,67.7902 -14.4784,55.8065C-13.6627,43.8228 -8.01713,39.204 0.622755,39.2643C9.26264,39.3246 17.6092,43.8524 17.7454,54.095Z" style="fill:rgb(255,230,207);stroke-width:1px;stroke:black;"/>
            <path id="eye" d="M6.41678,61.2588C12.2138,60.2695 12.3869,53.0583 7.38278,51.5527C1.86651,49.893 -0.442835,62.4294 6.41678,61.2588Z" style="fill:white;stroke-width:1px;stroke:black;"/>
        </g>
        <g id="megan">
            <path id="head7" d="M2.05194,81.5202C11.0479,69.713 33.1686,81.8409 21.7797,97.9731C10.3907,114.105 -9.45391,96.6217 2.05194,81.5202Z" style="fill:rgb(207,255,207);stroke-width:1px;stroke:black;"/>
            <path id="eyes6" d="M9.2466,94.3614C14.7989,90.7671 10.096,83.597 5.2365,86.818C0.377042,90.039 3.91941,97.8099 9.2466,94.3614ZM17.9257,88.5643C22.0349,85.639 17.7703,79.3517 13.4563,82.4018C9.14227,85.4519 13.9156,91.4191 17.9257,88.5643Z" style="fill:white;stroke-width:1px;stroke:black;"/>
        </g>
        <g id="bacon">
            <path id="body4" d="M36.1985,80.5146C30.3304,80.1038 28.6788,83.1403 28.6788,86.8172C28.6788,90.494 29.3754,106.436 29.3754,106.436L33.7588,106.436L33.8693,91.98L33.7679,108.148L48.8699,106.546L51.0848,91.9158L49.1743,104.669L53.3361,105.038C53.3361,105.038 55.6055,97.9014 58.0043,90.2817C59.4874,85.5705 55.7738,84.0001 48.0627,83.2083" style="fill:rgb(255,207,210);stroke-width:1px;stroke:black;"/>
            <path id="head8" d="M30.6808,71.9064C30.1984,79.6145 35.8529,88.3619 42.9097,88.6457C49.9665,88.9295 56.6174,84.2578 57.2441,78.1907C57.8708,72.1237 58.2767,58.9167 45.953,58.1598C33.6293,57.4029 31.1741,64.0251 30.6808,71.9064Z" style="fill:rgb(255,207,210);stroke-width:1px;stroke:black;"/>
            <path id="eyes7" d="M44.7559,78.7905C44.8769,84.3598 52.3059,86.1464 52.767,79.4172C53.2281,72.6881 44.6256,72.7982 44.7559,78.7905ZM41.4564,77.3641C41.6133,83.1314 33.3869,80.9442 33.5564,76.954C33.7259,72.9638 41.2703,70.5203 41.4564,77.3641Z" style="fill:white;stroke-width:1px;stroke:black;"/>
        </g>
        <g id="bolin">
            <path id="head9" d="M41.8689,49.154C35.968,55.07 23.7545,57.8059 19.2626,51.4204C14.7707,45.0349 14.2471,32.867 22.0188,25.8562C29.7905,18.8454 40.2733,20.739 44.5567,25.5521C48.8402,30.3653 47.7697,43.238 41.8689,49.154Z" style="fill:rgb(207,255,239);stroke-width:1px;stroke:black;"/>
            <path id="eyes8" d="M21.7623,32.6823C25.2653,28.1689 32.5441,33.7872 28.548,39.1184C24.5518,44.4496 17.6499,37.9809 21.7623,32.6823ZM38.197,31.2279C42.2878,27.9401 34.9551,21.2116 31.3259,24.5833C26.7972,28.7907 32.8827,35.499 38.197,31.2279Z" style="fill:white;stroke-width:1px;stroke:black;"/>
            <path id="body5" d="M35.3005,47.2326C35.3005,47.2326 40.5298,47.8947 36.8995,52.6324C35.5881,54.3439 35.5198,56.9246 37.949,58.5405C39.2765,59.4235 41.5806,58.0402 44.0448,60.2712C48.7694,64.5488 51.4729,68.5569 53.7667,72.7892C56.0604,77.0216 57.8351,78.8484 60.0561,77.653C62.277,76.4575 61.7417,73.1317 59.7242,69.7902C57.7066,66.4488 54.9161,60.4574 52.296,58.0619C49.676,55.6665 46.4514,54.5605 46.4514,54.5605C46.4514,54.5605 49.4942,55.3847 52.7981,58.3835C54.442,59.8756 57.8187,66.1554 59.5137,69.107C60.605,71.0074 63.9567,77.2022 58.8383,78.1501C61.11,84.8476 59.3355,92.7667 63.6613,92.8657C66.9988,92.942 67.7181,87.907 66.2833,72.4895C67.0427,80.6497 67.1736,85.7313 66.6713,89.2955C67.5436,92.3889 69.1214,92.5355 70.2092,92.3394C72.6989,91.8906 73.9357,83.3345 72.7318,74.7629C71.1496,63.497 68.1453,61.8614 60.5151,54.1203C63.9595,55.2038 68.235,64.6403 70.8656,63.5692C74.1507,62.3989 72.5198,57.135 65.8695,50.7127C62.5684,47.5249 48.9559,37.3378 45.4449,41.925C43.8994,43.9443 41.5293,40.5415 41.5293,40.5415" style="fill:rgb(207,255,239);stroke-width:1px;stroke:black;"/>
        </g>
        <g id="joshua">
            <path id="head and body1" d="M69.943,65.1429C63.8184,70.1315 64.8238,80.0714 70.2817,84.2695C75.7396,88.4677 82.4957,85.0879 84.3175,84.1005C84.4751,81.7193 82.342,81.2485 82.342,81.2485C82.342,81.2485 85.9935,81.6583 83.3062,87.0534C82.6917,88.287 81.7998,89.8646 83.9677,92.3147C88.5523,97.4958 97.2246,105.908 97.2246,105.908L101.791,103.208L90.6533,89.231L90.3223,86.0419L91.1227,89.474L103.5,104.908L105.069,86.1798L98.1214,81.4404L107.09,87.0946L105.884,81.0493C105.884,81.0493 97.8245,75.6717 95.9528,76.7962C88.228,81.4377 88.0595,76.173 88.0595,76.173C88.0595,76.173 88.3126,78.4657 90.1207,78.7018C91.6929,77.6546 93.6344,69.0144 86.2683,64.7764C78.1883,60.1276 72.8077,62.8095 69.943,65.1429Z" style="fill:rgb(207,255,253);stroke-width:1px;stroke:black;"/>
            <path id="eyes9" d="M76.2623,77.4019C79.4651,71.6287 73.4931,66.4773 70.2856,71.3999C67.0781,76.3225 72.486,84.2088 76.2623,77.4019ZM78.488,65.5472C82.5855,61.443 86.0088,68.3957 82.6638,70.458C79.3188,72.5204 74.8815,69.1595 78.488,65.5472Z" style="fill:white;stroke-width:1px;stroke:black;"/>
        </g>
        <g id="francesco">
            <path id="noodlebody" d="M34.0114,54.0724C34.0114,54.0724 32.1523,55.659 33.415,57.1801C34.3806,58.3434 35.8182,57.5377 36.4575,56.6149C36.0522,55.556 36.3475,53.9505 36.6261,52.934L34.0114,54.0724ZM54.5669,21.4788C53.3464,20.0897 46.2414,12.3079 46.2414,12.3079C46.2414,12.3079 48.7406,10.8429 52.0071,13.0016C55.2736,15.1603 58.6242,20.4541 59.4396,21.8779C60.2549,23.3018 61.9064,26.4503 60.3565,29.3348C58.8067,32.2193 61.0426,34.126 61.0426,34.126C61.0426,34.126 52.8529,41.9531 51.4122,41.4893C49.0195,40.7192 48.3003,40.644 46.2439,41.08C46.9763,39.11 47.1458,35.7902 47.1458,35.7902L47.7897,35.2738L46.8984,33.2919C44.9343,25.3904 39.5311,22.7146 34.5236,17.0212L36.7543,19.462C36.7543,19.462 36.8702,20.1325 36.4671,21.4456C34.4677,21.0767 31.5716,21.2673 30.1059,21.6108C30.3983,19.6676 30.7261,13.2481 33.4602,10.7937C34.2437,10.0904 34.8692,10.2705 35.5956,10.327C37.4195,10.4689 41.2016,14.5518 44.113,17.5664C44.113,17.5664 38.4467,11.1935 35.8406,10.3408C36.0191,9.14462 36.3388,8.64895 37.3265,8.0924C38.6807,7.32932 41.4407,8.38699 42.3766,9.07016C47.0282,12.4657 53.3655,20.2846 54.4839,21.5753C56.3742,23.7569 56.7561,25.4549 56.7561,25.4549C56.7561,25.4549 56.56,23.7472 54.5669,21.4788Z" style="fill:rgb(243,207,255);stroke-width:1px;stroke:black;"/>
            <path id="head10" d="M56.7296,33.1291C60.9039,29.4596 68.5194,28.1224 75.7081,32.8435C85.4138,39.2175 82.4971,49.0774 78.7549,54.5288C74.257,61.0809 63.4861,62.5206 56.0667,56.5455C48.1056,50.134 50.2874,38.7923 56.7296,33.1291Z" style="fill:rgb(243,207,255);stroke-width:1px;stroke:black;"/>
            <path id="eyes10" d="M66.923,42.0905C68.4966,44.906 66.487,47.6079 64.8088,48.9273C63.1306,50.2467 59.0938,50.4107 57.6188,47.9365C56.1438,45.4623 57.1122,41.5593 59.2038,40.3184C61.2954,39.0774 65.5175,39.5756 66.923,42.0905ZM74.7855,35.66C72.7334,33.4955 70.3304,32.9692 68.3082,34.5445C65.4142,36.7989 65.518,39.8716 67.105,41.532C69.3675,43.8988 72.9294,43.2062 74.2322,41.4731C75.405,39.9128 76.2886,37.2455 74.7855,35.66Z" style="fill:white;stroke-width:1px;stroke:black;"/>
        </g>
    </g>
</svg>
