<?xml version="1.0" standalone="no"?>
<!DOCTYPE svg PUBLIC "-//W3C//DTD SVG 1.1//EN" "http://www.w3.org/Graphics/SVG/1.1/DTD/svg11.dtd">
<svg width="100%" height="100%" viewBox="0 0 100 100" version="1.1" xmlns="http://www.w3.org/2000/svg" xmlns:xlink="http://www.w3.org/1999/xlink" xml:space="preserve" style="fill-rule:evenodd;clip-rule:evenodd;stroke-linecap:round;stroke-linejoin:round;stroke-miterlimit:1.41421;">
    <g>
        <g id="Background">
            <rect x="0" y="0" width="100" height="100" style="fill:rgb(94,255,114);"/>
        </g>
        <g id="Stream">
            <path d="M3.82742,114.428C3.82742,114.428 3.91961,99.647 11.7515,82.6259C21.9697,60.4187 39.1068,62.7616 45.8475,50C52.5883,37.2384 48.5845,26.0151 54.2849,16.0525C59.9853,6.08977 73.8668,0.41386 69.3337,-13.0768C64.8006,-26.5674 82.5696,-12.3263 82.5696,-12.3263C82.5696,-12.3263 73.3254,7.49672 68.7822,22.211C63.6777,38.7431 72.4409,46.1365 66.6854,61.183C61.2638,75.3567 56.9676,72.9592 51.0362,90.4987C45.1048,108.038 61.6965,118.11 61.6965,118.11L3.82742,114.428Z" style="fill:rgb(67,101,238);"/>
            <path d="M61.4045,66.3692C61.4045,66.3692 72.2245,55.6699 84.3428,58.6868C96.4611,61.7038 102.316,48.4013 105.043,43.1775" style="fill:none;stroke-width:4.17px;stroke:rgb(67,101,238);"/>
            <path d="M83.1618,58.5225C83.1618,58.5225 85.4417,58.8229 87.1811,61.6712C88.8394,64.3868 89.6657,70.4445 105.043,74.8179" style="fill:none;stroke-width:4.17px;stroke:rgb(67,101,238);"/>
            <path d="M29.2952,66.6702C29.2952,66.6702 34.6708,57.8372 26.0759,50C17.481,42.1628 15.9634,40.3131 17.5833,31.1615C19.2032,22.01 20.6733,21.6584 17.5833,13.9913C14.4933,6.3241 2.06457,-2.71829 2.06457,-2.71829" style="fill:none;stroke-width:4.17px;stroke:rgb(67,101,238);"/>
            <path d="M30.0839,55.8174C30.0839,55.8174 30.694,50.4273 36.439,40.413C43.1662,28.6866 35.1663,24.6229 37.963,18.5724C40.5782,12.9146 40.2248,2.704 33.9292,-2.71829" style="fill:none;stroke-width:4.17px;stroke:rgb(67,101,238);"/>
            <path d="M22.4276,74.8179C22.4276,74.8179 22.0628,59.1263 9.01367,58.5225C-4.0355,57.9188 -13.7563,50.0787 -13.7632,41.4327" style="fill:none;stroke-width:4.17px;stroke:rgb(67,101,238);"/>
            <path d="M65.2568,33.8235C65.2568,33.8235 66.4924,24.186 80.1873,26.6883C93.8821,29.1906 96.7435,24.8208 102.529,11.2529" style="fill:none;stroke-width:4.17px;stroke:rgb(67,101,238);"/>
            <path d="M73.4318,26.5395C73.4318,26.5395 80.1722,24.5318 83.6006,36.4212C86.5576,46.6755 103.486,40.0385 107.229,29.4847" style="fill:none;stroke-width:4.17px;stroke:rgb(67,101,238);"/>
            <path d="M48.1158,90.5038C48.1158,90.5038 50.9501,82.855 69.8621,84.2061C88.7741,85.5572 73.9085,104.561 109.158,86.3304C144.408,68.1003 109.158,76.8043 109.158,76.8043" style="fill:none;stroke-width:4.17px;stroke:rgb(67,101,238);"/>
            <path d="M58.4559,17.1203C58.4559,17.1203 49.0705,13.1911 50,4.74322C50.9295,-3.70462 48.152,-2.41785 43.1985,-7.17946" style="fill:none;stroke-width:4.17px;stroke:rgb(67,101,238);"/>
            <path d="M17.6528,40.4475C17.6528,40.4475 15.0178,34.3612 6.9784,34.9311C-0.649361,35.4717 -10.1218,38.1307 -10.8898,27.9998" style="fill:none;stroke-width:4.17px;stroke:rgb(67,101,238);"/>
        </g>
    </g>
</svg>
